HIERARCHY
ROOT Hips
{
	OFFSET 0.000000 0.000000 0.000000
	CHANNELS 6 Xposition Yposition Zposition Zrotation Yrotation Xrotation 
	JOINT LeftUpLeg_virtual
	{
		OFFSET 0.000000 0.000000 0.000000
		CHANNELS 3 Zrotation Yrotation Xrotation
		JOINT LeftUpLeg
		{
			OFFSET 10.205400 -3.823500 0.155100
			CHANNELS 3 Zrotation Yrotation Xrotation
			JOINT LeftLeg
			{
				OFFSET 0.708757 -12.982077 0.567790
				CHANNELS 3 Zrotation Yrotation Xrotation
				JOINT LeftFoot
				{
					OFFSET -0.708756 -10.717838 -2.184338
					CHANNELS 3 Zrotation Yrotation Xrotation
					JOINT LeftToeBase
					{
						OFFSET 0.108149 -7.191104 7.560241
						CHANNELS 3 Zrotation Yrotation Xrotation
						End Site
						{
							OFFSET 0.000000 0.000000 0.000000
						}
					}
				}
			}
		}
	}
	JOINT RightUpLeg_virtual
	{
		OFFSET 0.000000 0.000000 0.000000
		CHANNELS 3 Zrotation Yrotation Xrotation
		JOINT RightUpLeg
		{
			OFFSET -10.205400 -3.823500 0.005500
			CHANNELS 3 Zrotation Yrotation Xrotation
			JOINT RightLeg
			{
				OFFSET -0.708756 -12.982134 0.610632
				CHANNELS 3 Zrotation Yrotation Xrotation
				JOINT RightFoot
				{
					OFFSET 0.708754 -10.717769 -1.945823
					CHANNELS 3 Zrotation Yrotation Xrotation
					JOINT RightToeBase
					{
						OFFSET -0.108140 -7.191069 7.372968
						CHANNELS 3 Zrotation Yrotation Xrotation
						End Site
						{
							OFFSET 0.000000 0.000000 0.000000
						}
					}
				}
			}
		}
	}
	JOINT Spine_virtual
	{
		OFFSET 0.000000 0.000000 0.000000
		CHANNELS 3 Zrotation Yrotation Xrotation
		JOINT Spine
		{
			OFFSET 0.000000 6.876099 0.125700
			CHANNELS 3 Zrotation Yrotation Xrotation
			JOINT Spine1
			{
				OFFSET 0.000000 8.022060 0.146608
				CHANNELS 3 Zrotation Yrotation Xrotation
				JOINT Spine2
				{
					OFFSET 0.000000 9.168068 0.167552
					CHANNELS 3 Zrotation Yrotation Xrotation
					JOINT Neck_virtual
					{
						OFFSET 0.000000 0.000000 0.000000
						CHANNELS 3 Zrotation Yrotation Xrotation
						JOINT Neck
						{
							OFFSET 0.000000 10.314075 0.188496
							CHANNELS 3 Zrotation Yrotation Xrotation
							JOINT Head
							{
								OFFSET 0.000000 7.643700 -2.377400
								CHANNELS 3 Zrotation Yrotation Xrotation
								End Site
								{
									OFFSET 0.000000 0.000000 0.000000
								}
							}
						}
					}
					JOINT LeftShoulder_virtual
					{
						OFFSET 0.000000 0.000000 0.000000
						CHANNELS 3 Zrotation Yrotation Xrotation
						JOINT LeftShoulder
						{
							OFFSET 4.392200 8.824978 0.174984
							CHANNELS 3 Zrotation Yrotation Xrotation
							JOINT LeftArm
							{
								OFFSET 8.771219 -2.981674 -0.026999
								CHANNELS 3 Zrotation Yrotation Xrotation
								JOINT LeftForeArm
								{
									OFFSET 8.512804 0.000000 -0.000000
									CHANNELS 3 Zrotation Yrotation Xrotation
									JOINT LeftHand
									{
										OFFSET 18.484802 0.000000 -0.000000
										CHANNELS 3 Zrotation Yrotation Xrotation
										End Site
										{
											OFFSET 0.000000 0.000000 0.000000
										}
									}
								}
							}
						}
					}
					JOINT RightShoulder_virtual
					{
						OFFSET 0.000000 0.000000 0.000000
						CHANNELS 3 Zrotation Yrotation Xrotation
						JOINT RightShoulder
						{
							OFFSET -4.392200 8.824993 0.141379
							CHANNELS 3 Zrotation Yrotation Xrotation
							JOINT RightArm
							{
								OFFSET -8.771282 -2.981682 -0.094208
								CHANNELS 3 Zrotation Yrotation Xrotation
								JOINT RightForeArm
								{
									OFFSET -8.494598 0.000000 0.000000
									CHANNELS 3 Zrotation Yrotation Xrotation
									JOINT RightHand
									{
										OFFSET -18.483803 0.000000 0.000001
										CHANNELS 3 Zrotation Yrotation Xrotation
										End Site
										{
											OFFSET 0.000000 0.000000 0.000000
										}
									}
								}
							}
						}
					}
				}
			}
		}
	}
}
MOTION
Frames: 11
Frame Time: 0.033333
8.980300 36.698799 31.929859 179.879507 2.014885 -179.828349 -3.284295 -1.923835 10.179295 -5.615178 1.090330 -17.016721 12.084456 8.868131 14.549184 -5.587634 0.703758 11.651411 0.000000 0.000000 0.000000 2.115894 0.534692 8.300091 0.694179 -4.878669 -4.820701 -7.119555 -1.796174 11.503219 6.030309 8.094341 8.502251 0.000000 0.000000 0.000000 1.754399 1.288204 1.158876 -4.361684 1.302904 -7.077587 1.129216 -4.176766 3.554749 -0.009963 -0.027225 0.020028 0.805850 -2.467441 5.987973 -0.408096 2.268932 1.682147 0.000000 0.000000 0.000000 2.078071 -1.429491 3.136792 2.335483 -2.745924 -6.423730 -19.927553 27.508040 -31.233813 -5.723891 -27.465591 -3.586128 0.000000 0.000000 0.000000 -1.214156 -0.715338 2.768340 6.035074 -3.482504 -8.320142 29.619457 -35.283275 -33.881577 -1.298683 31.420311 -6.328881 0.000000 0.000000 0.000000 
8.975742 36.698448 31.951851 179.862950 1.914672 -179.752930 -3.275709 -2.091736 10.146643 -5.662926 1.182952 -17.016815 12.159371 9.045002 14.657560 -5.557045 0.763559 11.592194 0.000000 0.000000 0.000000 2.125749 0.470062 8.394987 0.751454 -5.093337 -4.675404 -7.088052 -1.772602 11.685952 6.091137 8.187850 8.641887 0.000000 0.000000 0.000000 1.722703 1.240267 1.073428 -4.363913 1.252240 -7.110370 1.156144 -4.046618 3.560049 0.033010 -0.070960 -0.002321 0.763514 -2.451281 6.000736 -0.438084 2.222472 1.694181 0.000000 0.000000 0.000000 2.044881 -1.472628 3.120079 2.339993 -2.779794 -6.402996 -19.975887 27.511626 -31.257859 -5.670810 -27.414943 -3.685488 0.000000 0.000000 0.000000 -1.263186 -0.736963 2.715401 6.043284 -3.537534 -8.314815 29.579340 -35.361126 -33.854201 -1.300189 31.499794 -6.364258 0.000000 0.000000 0.000000 
8.967940 36.700058 31.979858 179.941976 2.037637 -179.810781 -3.243760 -1.932268 10.131337 -5.612322 1.282893 -17.046912 12.064405 8.943579 14.701822 -5.611756 0.766290 11.501280 0.000000 0.000000 0.000000 2.200685 0.511249 8.415698 0.747736 -5.117276 -4.669368 -7.066238 -1.672015 11.710759 6.150141 8.178743 8.728059 0.000000 0.000000 0.000000 1.753353 1.340878 1.133675 -4.329890 1.333513 -7.123710 1.150036 -4.138866 3.542643 -0.013443 0.001071 0.019245 0.767243 -2.467717 5.957743 -0.416286 2.204073 1.763424 0.000000 0.000000 0.000000 2.056515 -1.445702 3.129375 2.322679 -2.772797 -6.421611 -19.987131 27.493538 -31.255950 -5.661537 -27.337141 -3.666116 0.000000 0.000000 0.000000 -1.260119 -0.744098 2.714025 6.136125 -3.546018 -8.277962 29.431275 -35.350153 -33.811865 -1.269560 31.493623 -6.360300 0.000000 0.000000 0.000000 
8.963941 36.699646 32.003613 179.926826 2.040302 -179.785578 -3.254015 -1.893974 10.095084 -5.612452 1.194315 -17.077616 12.036314 9.044022 14.682214 -5.610299 0.761805 11.579703 0.000000 0.000000 0.000000 2.150342 0.550084 8.402218 0.807140 -5.095360 -4.730340 -7.097295 -1.670773 11.701051 6.110203 8.169319 8.767882 0.000000 0.000000 0.000000 1.722282 1.365364 1.126178 -4.314889 1.302077 -7.150020 1.143504 -4.169695 3.524653 0.005077 -0.030541 0.016651 0.768689 -2.390129 5.943485 -0.357242 2.202034 1.805933 0.000000 0.000000 0.000000 2.047906 -1.399547 3.104176 2.276076 -2.739534 -6.400654 -19.992806 27.473685 -31.246186 -5.637425 -27.272869 -3.634634 0.000000 0.000000 0.000000 -1.267970 -0.689915 2.773599 6.141479 -3.531907 -8.388193 29.403855 -35.399378 -33.886037 -1.187360 31.604136 -6.206840 0.000000 0.000000 0.000000 
8.964294 36.699100 32.021099 179.867636 2.004855 -179.771153 -3.300903 -1.935991 10.032780 -5.450021 0.920330 -17.085025 12.008884 9.456955 14.853706 -5.591621 0.777252 11.565132 0.000000 0.000000 0.000000 2.075885 0.548581 8.386967 0.843129 -5.010868 -4.795551 -7.086988 -1.669972 11.659231 6.092456 8.106739 8.827068 0.000000 0.000000 0.000000 1.661397 1.391637 1.128618 -4.299062 1.297276 -7.155106 1.130319 -4.151761 3.448270 0.006495 -0.028018 0.004619 0.798250 -2.467667 5.987755 -0.258860 2.228975 1.867836 0.000000 0.000000 0.000000 2.054962 -1.437725 3.138591 2.230593 -2.768161 -6.460287 -19.924623 27.411402 -31.086120 -5.562362 -27.161275 -3.654590 0.000000 0.000000 0.000000 -1.250380 -0.712796 2.792295 6.227183 -3.568714 -8.294739 29.354732 -35.400006 -33.924149 -1.137275 31.707849 -6.368213 0.000000 0.000000 0.000000 
8.970319 36.699352 32.034882 179.942973 2.216482 -179.735485 -3.229766 -1.935003 10.022106 -5.391824 1.035949 -17.134059 11.928815 9.499276 14.918313 -5.541482 0.872509 11.532716 0.000000 0.000000 0.000000 2.097925 0.567898 8.368606 0.900543 -4.938201 -4.842550 -7.142556 -1.570542 11.590016 6.089559 8.093775 8.998262 0.000000 0.000000 0.000000 1.672892 1.404141 1.099510 -4.238341 1.343671 -7.182985 1.147516 -4.098123 3.532712 0.014900 0.004896 -0.004612 0.755677 -2.458539 5.883606 -0.237164 2.185847 1.962972 0.000000 0.000000 0.000000 2.005883 -1.408192 3.129164 2.198395 -2.783345 -6.390342 -19.812495 27.362636 -31.045232 -5.570727 -27.076603 -3.547421 0.000000 0.000000 0.000000 -1.280825 -0.697007 2.739194 6.296004 -3.568140 -8.278837 29.334191 -35.439038 -33.930549 -1.097044 31.832646 -6.449960 0.000000 0.000000 0.000000 
8.989113 36.702316 32.048996 179.867895 2.404277 -179.766863 -3.332498 -2.057568 10.058428 -5.274805 1.039395 -17.153774 11.857038 9.494538 15.089157 -5.496582 0.935334 11.453243 0.000000 0.000000 0.000000 1.985275 0.478635 8.345367 0.974716 -4.824475 -4.898580 -7.125064 -1.498257 11.468384 6.088085 8.097913 9.116607 0.000000 0.000000 0.000000 1.615823 1.301037 1.221439 -4.223469 1.335848 -7.272040 1.115262 -4.076538 3.532775 0.004285 -0.021422 0.031431 0.788117 -2.392716 5.892245 -0.178361 2.209106 2.103241 0.000000 0.000000 0.000000 2.004555 -1.347500 3.090238 2.185844 -2.749936 -6.351348 -19.573720 27.404549 -30.743399 -5.477917 -27.076775 -3.484402 0.000000 0.000000 0.000000 -1.268180 -0.627628 2.762124 6.387996 -3.506753 -8.272109 29.355682 -35.364387 -34.060357 -0.996444 32.013551 -6.421337 0.000000 0.000000 0.000000 
9.026719 36.706364 32.070679 179.952590 2.685352 -179.793119 -3.322085 -2.176184 10.112691 -5.124979 1.130536 -17.222230 11.770736 9.412376 15.284577 -5.379679 1.085167 11.286355 0.000000 0.000000 0.000000 1.991608 0.362135 8.329905 1.070278 -4.774110 -4.956641 -7.113549 -1.415393 11.319603 6.113354 8.127140 9.282847 0.000000 0.000000 0.000000 1.635469 1.190209 1.326346 -4.147590 1.362612 -7.334792 1.111565 -4.033920 3.487370 -0.002788 -0.028116 0.012056 0.733543 -2.244099 5.927933 -0.258585 2.132972 2.267686 0.000000 0.000000 0.000000 1.957407 -1.266934 3.154144 2.159170 -2.732607 -6.318485 -19.317957 27.376073 -30.614424 -5.418393 -27.136367 -3.334604 0.000000 0.000000 0.000000 -1.319933 -0.523927 2.798533 6.496966 -3.429533 -8.172423 29.499095 -35.340560 -34.148962 -0.956754 32.251088 -6.476795 0.000000 0.000000 0.000000 
9.080566 36.713772 32.099266 179.861188 2.965542 -179.811383 -3.455636 -2.275834 10.203236 -4.899414 1.114926 -17.266081 11.695546 9.422783 15.412638 -5.329625 1.155161 11.210900 0.000000 0.000000 0.000000 1.833157 0.237329 8.282961 1.229910 -4.652940 -5.038613 -7.140956 -1.370204 11.115484 6.081203 8.149112 9.448069 0.000000 0.000000 0.000000 1.570998 1.071185 1.411115 -4.120077 1.381150 -7.381722 1.053077 -3.959917 3.491468 -0.022480 -0.032656 0.026436 0.784569 -2.198264 5.905445 -0.308254 2.134398 2.445975 0.000000 0.000000 0.000000 1.968487 -1.207630 3.104953 2.101380 -2.711291 -6.295023 -19.139187 27.485730 -30.484292 -5.350920 -27.369215 -3.193183 0.000000 0.000000 0.000000 -1.297478 -0.489231 2.798175 6.605218 -3.399847 -8.188840 29.737903 -35.299029 -34.215034 -0.865414 32.568374 -6.461696 0.000000 0.000000 0.000000 
9.147969 36.719711 32.143715 179.977465 3.379736 -179.831600 -3.403778 -2.198564 10.279243 -4.673459 1.233318 -17.335408 11.594094 9.340793 15.441391 -5.253201 1.287876 11.178352 0.000000 0.000000 0.000000 1.869969 0.264840 8.225707 1.418603 -4.505075 -5.090657 -7.155602 -1.348137 10.915973 6.102464 8.159926 9.636085 0.000000 0.000000 0.000000 1.617358 1.037685 1.509393 -4.008956 1.414368 -7.425695 1.062616 -3.857923 3.494462 0.027277 0.005568 0.019829 0.654599 -2.059196 5.926290 -0.438844 2.088123 2.678543 0.000000 0.000000 0.000000 1.836436 -1.125963 3.169271 1.983134 -2.705531 -6.221056 -19.103998 27.533450 -30.458856 -5.204344 -27.591273 -3.010773 0.000000 0.000000 0.000000 -1.418128 -0.413611 2.769294 6.778827 -3.398376 -8.060996 29.955847 -35.388945 -34.012512 -0.854477 33.019641 -6.528918 0.000000 0.000000 0.000000 
9.234722 36.724045 32.190765 179.908781 3.650719 -179.803869 -3.480549 -2.131491 10.336290 -4.390563 1.185821 -17.378363 11.437027 9.392290 15.427232 -5.228325 1.356459 11.289043 0.000000 0.000000 0.000000 1.742178 0.318943 8.177440 1.678076 -4.434019 -5.141248 -7.167825 -1.327543 10.687146 6.077428 8.146469 9.754923 0.000000 0.000000 0.000000 1.552558 1.071279 1.556337 -3.981241 1.370199 -7.448532 0.988455 -3.793125 3.508413 0.060647 0.015671 -0.009076 0.654100 -2.109485 5.949776 -0.612313 2.064598 2.886547 0.000000 0.000000 0.000000 1.860571 -1.066493 3.123482 1.811915 -2.707679 -6.210871 -19.140092 27.709924 -30.356748 -5.131423 -27.840240 -2.879664 0.000000 0.000000 0.000000 -1.414072 -0.365535 2.772709 7.026280 -3.377634 -7.848032 30.118078 -35.357038 -33.726716 -0.777015 33.500545 -6.436607 0.000000 0.000000 0.000000 
